<svg id="a1653471-40d8-4f75-830c-53a6055abb18" data-name="Livello 2" xmlns="http://www.w3.org/2000/svg" viewBox="0 0 177.99 150.15"><defs><style>.bc1d2a28-5a93-4bf1-8389-6c9ec9154f36{fill:#fefefc;}.a128b770-3dce-42f9-8d49-faa1b5bb5cc0,.abcd12fd-0c8a-4d68-bc9e-ad7da153f6cc,.b0afd9fc-1043-4058-bc9c-635f3a93571d,.b3968d89-a1eb-44d9-a76a-82a077341fe9,.bc1d2a28-5a93-4bf1-8389-6c9ec9154f36,.e078ad07-21fb-41c6-870e-50302683db51{stroke:#000;stroke-miterlimit:10;}.e078ad07-21fb-41c6-870e-50302683db51{fill:#d3d3d3;}.ee37e983-936f-47fe-b4af-54088777f8f2{fill:#111022;}.a5f19073-b675-439b-bc84-53ebe0ca770f{fill:#faf9fd;}.b3968d89-a1eb-44d9-a76a-82a077341fe9{fill:#3da1db;}.b0afd9fc-1043-4058-bc9c-635f3a93571d{fill:#a8adab;}.abcd12fd-0c8a-4d68-bc9e-ad7da153f6cc{fill:#fffefe;}.a128b770-3dce-42f9-8d49-faa1b5bb5cc0{fill:#e83b3b;}</style></defs><title>astronauta</title><path class="bc1d2a28-5a93-4bf1-8389-6c9ec9154f36" d="M334.82,516.33l7.8-7.46s16.28-4.07,28.49,1.7c0,0,6.11,0,11.87-.34,0,0,12.55,10.51,21.71,6.1,0,0,3.39.68,3.73-17.29l1.36-6.79s.93-5.69-4.2-6.26-6.65,1.53-9.88,11c0,0-1.9,2.85-5.32-1.14s-13.31-4.56-13.31-4.56-11.21-13.88-32.88-8.94c0,0-4.37-12.92-7.6-15.58,0,0,12.74-6.08,16-8.55a2.11,2.11,0,0,0,2.47,0,3,3,0,0,0,1.14-2.09s17.4-1.24,16.16-11.88S357,424.8,349,441c0,0-1.05-.85-3,.29s-1.62,2.47-1.62,2.47-11.83,6.63-21.6,4.7c0,0-6.55-2.78-10.19-2.14,0,0-2.06-1.64-1.35-3.56s5-26.66-18.18-38.82-47.6-.85-54.92,13.3-5.7,32.31-.86,40.3c0,0-3.13,2.37-2,6s7.12,6.85,12.26,5.61A31.58,31.58,0,0,0,263,474.59s-3.28,2.26-2.35,8.46S265,514,265,514s-2.64.93-2.5,3.14a5.77,5.77,0,0,0,1.28,3.42s-10.4,21.24,11.05,21.38,6.27-21.67,6.27-21.67a3.6,3.6,0,0,0,1.43-3c0-2.07-2.28-3-2.28-3l.43-.93s13.61,17.46,19.88,18,7-.14,7-.14,2.28,3.92,8,3.2,4.35-2.85,5.27-2,5.2,4.84,5.2,4.84a14.42,14.42,0,0,1,5.14-.35c3.06.28,9.12,1,11.19,2.85s13.68,11.4,17.88,6.77,5.35-8.7,5.56-18.32.57-13.32-4.2-13.89-9.2,12.9-9.2,12.9-1.56.71-2.42-1.36S340.24,518.19,334.82,516.33Z" transform="translate(-232.56 -398.22)"/><path class="e078ad07-21fb-41c6-870e-50302683db51" d="M322.69,448.41l16.87,22.75-1.26,7.54L318,487.65s-4,2.29-6.31-1.8S297.11,465,297.11,465l.85-9.13s-.71-1.42,3.14-2.85,17.24-6,17.24-6S321.79,447.19,322.69,448.41Z" transform="translate(-232.56 -398.22)"/><path class="ee37e983-936f-47fe-b4af-54088777f8f2" d="M309.22,443.28s-27.08,7.7-29.64,11-7.27,12.25-7.27,12.25-17.11-.71-23.81-9.26-13.6-22.95-4.34-36.35,20-15.54,31.14-14.82,21.24,5,26.94,12.54S309.22,443.28,309.22,443.28Z" transform="translate(-232.56 -398.22)"/><circle class="a5f19073-b675-439b-bc84-53ebe0ca770f" cx="35.97" cy="14.77" r="2.21"/><path class="a5f19073-b675-439b-bc84-53ebe0ca770f" d="M298.39,422.41a17.8,17.8,0,0,0-14.12-10.9s-7.65-2.4-8.26.91,6.45,3.66,11.34,3.86S298.39,422.41,298.39,422.41Z" transform="translate(-232.56 -398.22)"/><path class="b3968d89-a1eb-44d9-a76a-82a077341fe9" d="M344.29,443.71l8.27,14.54s1.71.89,2.47,0,1.33-1.14,1.14-2.09S349,441,349,441a2.92,2.92,0,0,0-3,.29C344.6,442.38,344.38,442.76,344.29,443.71Z" transform="translate(-232.56 -398.22)"/><path class="b0afd9fc-1043-4058-bc9c-635f3a93571d" d="M339.17,471.37l-20.83,11L298,455.82l-.85,9.13,14.54,20.9s1.46,3.93,6.31,1.8l20.34-8.95,1.19-7.1A.22.22,0,0,0,339.17,471.37Z" transform="translate(-232.56 -398.22)"/><path class="abcd12fd-0c8a-4d68-bc9e-ad7da153f6cc" d="M237.19,457.49s4.47-4.09,8.75,2.61,3.18,7.84,1.52,9-18.58-2.66-10.27-11.59" transform="translate(-232.56 -398.22)"/><path class="b3968d89-a1eb-44d9-a76a-82a077341fe9" d="M251.63,471.51s-1.56,8,2.86,10,6.38,2.81,6.38,2.81l1.08,7.59s-12.17-1.42-15.73-10.19-1.42-12.35-1.42-12.35l2.66-.26,4.17,2.43" transform="translate(-232.56 -398.22)"/><path class="b3968d89-a1eb-44d9-a76a-82a077341fe9" d="M280.29,514.27,265,514s-2.91,1.22-2.5,3.14a13.62,13.62,0,0,0,1.28,3.42l17.32-.29s3.85-3.56-.85-6" transform="translate(-232.56 -398.22)"/><path class="b3968d89-a1eb-44d9-a76a-82a077341fe9" d="M329.32,536.79s9.52.09,13.05,2.92,14.59,11.53,17.88,6.77,5.42-5.13,5.56-18.32,0-13-4.2-13.89-9.2,12.9-9.2,12.9a1.73,1.73,0,0,1-2.42-1.36c-.57-2.14-12.54-8.41-12.54-8.41S326.86,532.05,329.32,536.79Z" transform="translate(-232.56 -398.22)"/><path class="b0afd9fc-1043-4058-bc9c-635f3a93571d" d="M365.85,529.71c0,13.21-6.59,18-8.74,18s.58-9.68.58-17.45,3.55-15.11,5.7-15.11S365.85,521.94,365.85,529.71Z" transform="translate(-232.56 -398.22)"/><path class="b3968d89-a1eb-44d9-a76a-82a077341fe9" d="M372.51,510.56a33.21,33.21,0,0,1,4.56-19.24s10.08.57,13.31,4.56c0,0,3.28,3.7,5.32,1.14,0,0,2.76-12.64,9.88-11s3.83,9.93,2.84,13.05.51,14.37-3.73,17.29-14.09.27-21.71-6.1Z" transform="translate(-232.56 -398.22)"/><path class="b0afd9fc-1043-4058-bc9c-635f3a93571d" d="M400.17,517.52s-2.71-22.46,4.27-31.6c0,0,9-1.69,4,13.12C408.42,499,409.86,518.34,400.17,517.52Z" transform="translate(-232.56 -398.22)"/><path class="b3968d89-a1eb-44d9-a76a-82a077341fe9" d="M357,481.51s-1.13,4.75,5.46,6.82,9.87,1.08,10.43-.8C372.86,487.53,365.78,482.13,357,481.51Z" transform="translate(-232.56 -398.22)"/><path class="b3968d89-a1eb-44d9-a76a-82a077341fe9" d="M316.9,503.34s-2.8,4.28,3.06,8.31,8.78,4.48,10.62,3.52,3.66-3.4-2.32-7.43S321.54,501.76,316.9,503.34Z" transform="translate(-232.56 -398.22)"/><path class="e078ad07-21fb-41c6-870e-50302683db51" d="M260.87,484.29s-1.82-6.18,2.17-9.7,6.84-1.36,6.84-1.36-6.55,1.84-6.46,8.3v5.55l-1.47,4.8Z" transform="translate(-232.56 -398.22)"/><path class="b3968d89-a1eb-44d9-a76a-82a077341fe9" d="M263.42,487.08a7.32,7.32,0,0,0-1.47,4.8s-.05-4.55,2.8-5.84,5.85.71,6.13,5,1.57,12-3.42,11.69-4.39-2.89-4.39-2.89L262,491.88" transform="translate(-232.56 -398.22)"/><path class="b0afd9fc-1043-4058-bc9c-635f3a93571d" d="M274.63,474.21s6.28-.47,5.33,16L277.34,514l3.38-.64S292.5,472.41,274.63,474.21Z" transform="translate(-232.56 -398.22)"/><path class="b0afd9fc-1043-4058-bc9c-635f3a93571d" d="M297.67,465.37l-2.66,4a3.07,3.07,0,0,0-2.86.44c-1.06,1.05-2.69,3.62-.41,5.71s4.7,0,4.7,0a4,4,0,0,0,1-3.9l2.77-2.38Z" transform="translate(-232.56 -398.22)"/><path class="b0afd9fc-1043-4058-bc9c-635f3a93571d" d="M307.5,480.11l-2.66,4a3.05,3.05,0,0,0-2.86.45c-1.06,1.05-2.7,3.62-.41,5.71s4.7,0,4.7,0a4,4,0,0,0,1-3.91l2.77-2.37Z" transform="translate(-232.56 -398.22)"/><path class="b0afd9fc-1043-4058-bc9c-635f3a93571d" d="M283.49,500.58s12.45,22.89,24.18,30.18a.22.22,0,0,1-.08.4,34.54,34.54,0,0,1-7,.14c-6.45-.83-19.88-18-19.88-18Z" transform="translate(-232.56 -398.22)"/><path class="b0afd9fc-1043-4058-bc9c-635f3a93571d" d="M272.31,466.51l-2.43,6.72s7.44-12.7,14.65-15.93,28-11,28-11l-1.35-3.56-1.93.57s-25.84,7.36-29.64,11S272.64,465.6,272.31,466.51Z" transform="translate(-232.56 -398.22)"/><path d="M333.86,516.62a18.42,18.42,0,0,0-1.78-4.14,11.67,11.67,0,0,0-1.31-1.78A7.71,7.71,0,0,0,330,510l-.93-.71c-2.53-1.91-5.12-3.77-7.71-5.61l.09.05a13.65,13.65,0,0,0-5.14-.65A22.05,22.05,0,0,0,311,504a30.43,30.43,0,0,0-5,1.95c-.81.41-1.6.85-2.4,1.28l-2.31,1.44,2.24-1.55c.78-.47,1.55-1,2.34-1.4a31.1,31.1,0,0,1,5-2.23,23.34,23.34,0,0,1,5.37-1.2,14.54,14.54,0,0,1,5.61.47h0l.06,0c2.69,1.72,5.36,3.45,8,5.25.34.23.66.44,1,.69a9.15,9.15,0,0,1,1,.85,13.23,13.23,0,0,1,1.61,2,19.71,19.71,0,0,1,2.22,4.51Z" transform="translate(-232.56 -398.22)"/><path d="M344.41,483a28.63,28.63,0,0,0-4.07,1.1,39.06,39.06,0,0,0-4,1.6,37.7,37.7,0,0,0-3.81,2,43,43,0,0,0-3.59,2.46,41.26,41.26,0,0,1,3.31-2.87,39.52,39.52,0,0,1,3.62-2.51,37.54,37.54,0,0,1,3.9-2.11A30.09,30.09,0,0,1,344,481Z" transform="translate(-232.56 -398.22)"/><circle class="a128b770-3dce-42f9-8d49-faa1b5bb5cc0" cx="89.46" cy="75.93" r="2.27"/><circle class="a128b770-3dce-42f9-8d49-faa1b5bb5cc0" cx="96.57" cy="72.65" r="2.23"/><circle class="b3968d89-a1eb-44d9-a76a-82a077341fe9" cx="81.84" cy="71.61" r="2.75"/><circle class="b3968d89-a1eb-44d9-a76a-82a077341fe9" cx="96.34" cy="65.11" r="2.75"/><circle class="b3968d89-a1eb-44d9-a76a-82a077341fe9" cx="88.89" cy="68.29" r="2.75"/><polygon class="ee37e983-936f-47fe-b4af-54088777f8f2" points="71.68 57.31 78.38 66.72 92.92 60.42 86.15 51.42 71.68 57.31"/></svg>
