<svg id="e16f868a-5338-4125-b594-ecf84011c73d" data-name="Livello 3" xmlns="http://www.w3.org/2000/svg" viewBox="0 0 326.89 326.89"><defs><style>.ba2e1e30-3bb4-49b7-ae6e-0bf14612f166{fill:#2f79bd;stroke-width:4px;}.ba2e1e30-3bb4-49b7-ae6e-0bf14612f166,.e70531c3-f56f-4aed-875f-1bce90d7d9a0{stroke:#000;stroke-miterlimit:10;}.bd0a05b0-0946-49f0-9b9d-4c696302c34f{fill:#3e92cd;}.fad3086d-5fd3-46bf-ad47-c4dfb6dea407{fill:#4da8db;}.e70531c3-f56f-4aed-875f-1bce90d7d9a0{fill:#60b772;}.a9ba58cf-df14-4507-b402-0cda787c9a73{fill:#347f3e;}.a5aa048f-c581-4670-b37d-4e950248f458{fill:#449952;}.ed62a908-c9b1-40d4-8be4-112002ddb0e1{fill:#faf9fd;opacity:0.5;}</style></defs><title>earth</title><circle class="ba2e1e30-3bb4-49b7-ae6e-0bf14612f166" cx="163.45" cy="163.45" r="161.45"/><circle class="bd0a05b0-0946-49f0-9b9d-4c696302c34f" cx="171.48" cy="158.78" r="153.41"/><circle class="fad3086d-5fd3-46bf-ad47-c4dfb6dea407" cx="178.5" cy="150.33" r="141.18"/><path class="e70531c3-f56f-4aed-875f-1bce90d7d9a0" d="M447.88,265.3s-6.75,4.11-7.68,14.54c0,0-1.71,5.05-14.29,17.06,0,0-1.09-.16,0,5.05a4.17,4.17,0,0,0,.46,4.43c1.71,2.21,4.51,2.21,6.68,1.26s1.69-5.06,3.18-3.16,3,4.27,1.33,6.79,4.19,3.16,4.19,3.16,3.42-1.58,3.88-.79-2.33-3.16-.77-4.74,4-.15,4.34-3.79-1.39-7.11-3.26-7.42-1.08-2.85.47-2.85,2.56.79,2.83-2.21,1.21-9.16,4.78-10.58a10.84,10.84,0,0,1,5.75-.95s-5.13,13.43-4.35,15.48,3.26,3.95,3.26,5.37,2.95,2.21,4,.16,4.66-6,5.59-2.05,1.4,4.74,0,4.74-6.68.15-7,1.73-1.09,2.22.15,3.8-2,2.52-3.41,2.21-4.35-.16-4.51,1.89,1.56,5.69-.77,6.32A67.55,67.55,0,0,1,439.89,323c-7,.63-10.88-2-12,0s-2.37,2.69-2.51,4.74-.44,3.48-3.08,5.06-11.81,6.47-11.81,6.47-3.57,1.74-.78,3.95,5.91,3.64,6.53,5.37,1.55,4.59-.47,4.9-13.2-1.89-13.67,2.21-2.33,7.11-2.33,9.17,1.56,2.36,1.56,4.26,10.71,2.05,11.8.79,3.11-2.21,3.88-3.16-.15-1.58.63-4.58,3.72-6.79,5.12-7.27,2.33-2.52,7.15-3.47,6.36-1.42,6.83.47,9,9.48,9,9.48a28.53,28.53,0,0,1-.62,4.27c-.31.63,1.86,1.73,2,.94s.31-.94,1.86-1.42,3.57-.31,2.95-1.89-4.81-4.74-5.59-6.17S440,349,440.2,346.82s2.48-3.32,4.66-.16,9.94,9.16,10.87,11.85.31,7.58.15,8.05,2.64,2.74,2.8,4.14,6.21-1,6.21-1a33.46,33.46,0,0,0-3.1-5.68c-1.4-1.74-.32-3.32,1.7-3s6.12,1,5.7,3.16.36,8.69-1.19,9.32a16.08,16.08,0,0,0-4,2.06c-1.86,1.26-.31,2.68.93,3.16s5,0,6.52-4.9,5.13-3.16,6.37-4.74,0-9.16,0-9.16-5,0-5.74-1.42-.31-4.11,1.08-5.69,2.18-4.11.94-5.53,1.1-1.74,4.28-.32,5.34,2.06,6.12,0,3.57.48,3.42,1.58,1.4,6.32,3.26,6.48,5.9,2.37,4.19,3.16-6.68,2.69-8.69,1.11-4.82-4.27-5.91-3a11.44,11.44,0,0,0-1.7,3.8s-.16,9.16.15,10.9,5.9.47,6.83,2.52,3.58,5.69,1.56,7.59-6.21,2.52-4.51,4.58-.15,3.31-3.57,3-12.58,2.31-13.67.05-1.24-6.69-3.88-5.74-4.19.48-4.5,3.32-5,5.69-6.22,4.26-5.59-10.9-8.85-10.58-1.86.79-4-2.53.78-6.32-5.28-5.68-13.51-.48-16.46,2.84-8.7-.32-11.34,1.58-6.83,6.16-6.52,10.74,1.08,4.74-3.26,6.48-11,8.53-11.81,13.11-3.88,18.32,0,26.54,9.94,21.48,16.31,19.27,16.77-7.74,21.43-5.21,13.21,4.11,12.43,9.79-3.57,11.69-.31,15.8,4.81,18.8.62,24.49-6.37,10-5.28,15.63,3.42,21.49,3.42,21.49,34.16-19.27,52.34-48.81c0,0,.31-13.75,3.88-16.59s9.47-7.27,9.47-7.27,3.58-5.84,8.08-21.48c0,0-6.52,1.58-8.08-1.58s-6.67-26.54-9.94-29.07-9-13.27-6.52-14.85,9.47,6.95,10.72,11.53-.31,8.06,1.39,10,2.49,1.58,3.89,7.26,2.79,10.11,7.14,8.38,4-2.69,4-2.69,3.73-19.59,3.73-31.44c0,0-4.51-1.42-3.88-3.16s3.88-5.68,3.88-5.68S515.11,314,447.88,265.3Z" transform="translate(-187.52 -231.59)"/><path class="a9ba58cf-df14-4507-b402-0cda787c9a73" d="M484.11,485.31a143.51,143.51,0,0,1-51.46,48.25l-1.23-8s30.82-13.67,52.69-40.23Z" transform="translate(-187.52 -231.59)"/><path class="e70531c3-f56f-4aed-875f-1bce90d7d9a0" d="M189.52,390.73a68.27,68.27,0,0,1,6.83.79c2.18.48,1.71,9,1.71,9s.16,8.21,4,7.9,1.4-6.47.93-8.85,2.33-6,4.51-2.84a25.53,25.53,0,0,1,4.5,15.32c-.31,6.63,1.55,12.95,7.61,12.95s21,.48,24.54,5.37,6.83,13.27,8.23,12.33,1.71-3.49,7.46.07,3.26,7.19.93,12.09-9.32,7.58-2,16.43,12.58,18.95,17.39,20.85,6.37,5.53,6.53,13.43S281,540.65,281,540.65s10.09,4.89,17.08,7l1.87-8.37s4,1.1,6.37-1.27.15-4.11-1.25-6-.12-2.53,2.27-1.9,6.12,3.64,7.83,1.9.62-7.58.62-7.58a4.49,4.49,0,0,1,2.48-1.74c1.87-.63.16-6.64,1.4-7.58s8.86-2.37,8.86-2.37,5.12-1.58,7.76-9.32S338,491.83,338,491.83s6.68-5.21,7-8.21,2.48-12.48-12.12-17.06-18.94-4.42-18.94-4.42a16.61,16.61,0,0,0,2.33-5.22c.31-2.21-1.87-7.26-7.93-8.69s-12.73-5.84-12.58-7.1.78-4.9.78-4.9l-11,.47s-4-.79-5.59-4.11S271.2,435.12,267.4,443c0,0-2.71.79-3.18-2.84s-5.12-5.85-7.76-4.74-3.73-1.27-2.8-4.9.31-8.21-3.57-8.21-4.5-.79-2.33-4.9.31-6.16-2.33-5.69-6.21,2.21-7.76,4.9-3.42,3.95-5.13,2.69-3.88-.95-2.79-6.17a19.86,19.86,0,0,0-.47-9.63s.15-6.8,3.11-8.14a19.17,19.17,0,0,1,15.84,0c6.68,3.08,7.14,3.4,7.92,5.29s2.64,2.85,3.57,2.53,2.18-7.82,2.18-7.82.29-10.66,5.5-13,5.06-2.05,4.28-6.48-1.09-7.26-1.09-7.26,4.66.94,8.23-1.27,7.77-4.42,11.19-14.69a3.53,3.53,0,0,0,4.35,2.37c3.41-.79,10.71-4.26,11.64-6.63s-3.72-.16-6.05-1.11-2-4.42-2-4.42-.47-2.21-3.42-5.22,12.58-1.73,12.58-1.73,5.44.15,5.13,5.05,11.8,3.32,7.3-1.74A61.52,61.52,0,0,0,313,332.6a33.35,33.35,0,0,0,3.11-4.42c.31-.95-3.88-14.22-10.41-19.91s1.4,2.37-3.88,2.69-4.19-4.9-6.68-7.11-8.23-1.9-10.56,0-2.48,12.95-2.79,15.8-.78,4.42-4,5.52-2.33,5.53-2.33,5.53.62,6.48-2.33,5.85-6.23-6.16-5.68-9.64-1-4.1-7.37-6.32-6.52-6.63-3.1-11.53,3.41-7.19,5.28-6.75,3.88-5.57,6.52-7,4.81-.48,6.52-1.42,4.51-3.8,3.73-7.27-3.57-1.74-6.06-1.26-5-.32-7.92.15-5.9,5.69-8.54,5.53-8.39.32-9.63,1.74a9.5,9.5,0,0,1-9.63,2.84c-6.37-1.42-11.49-2.37-11.49-2.37S193,328.1,189.52,390.73Z" transform="translate(-187.52 -231.59)"/><path class="a5aa048f-c581-4670-b37d-4e950248f458" d="M319.21,515.06s-49.59-25.77-61.67-46.7l14.85,20.2a8.66,8.66,0,0,0,4.27,3.4c2.87,1,5.48,3.53,5.89,8.29s-.18,22.86-.18,22.86,13.5,9.18,24.27,11.89c0,0,.24-.63-1.74-3s.61-3.18,2.53-2.39,6.61,4.1,7.37,2.39,1.35-2.2.61-7.58a4,4,0,0,1,2.43-1.74C319.23,522.51,319.21,515.06,319.21,515.06Z" transform="translate(-187.52 -231.59)"/><path class="a5aa048f-c581-4670-b37d-4e950248f458" d="M431.42,525.54s27.44-10.2,52.69-40.23l.74-7.71s-26.12,21.31-55.05,31.63c-.43.15-.83-.12-.83,1.16Z" transform="translate(-187.52 -231.59)"/><path class="a5aa048f-c581-4670-b37d-4e950248f458" d="M264.4,286.34a8.76,8.76,0,0,0-4.37,3.35,4.74,4.74,0,0,1-4.83,1.74s-5.49-.4-8.42,2c-1.7,1.39-4.15,3.67-8.91,2.83,0,0-31,41.57-32.12,98.75a9.52,9.52,0,0,1,4.28,6.1c.9,3.68,2.07,4.11,2,10.54s1.88,9.71,1.88,9.71,1.26,3.11,6,3.13a103.09,103.09,0,0,1,13.91,1L232,419.36s-3.25-.66-3-3.68C229.21,413.34,213.56,334,264.4,286.34Z" transform="translate(-187.52 -231.59)"/><path class="e70531c3-f56f-4aed-875f-1bce90d7d9a0" d="M300.18,242.65s1.23,11.65,4.24,12,6.94-2.57,7.31-6.13,9.84,2.18,10.08,3.29a32.07,32.07,0,0,0,4.73,8.36c2.13,2.53-.37,3.57-.18,6.87s.48,2.76,3.5,2.84,2.38,3.36-1.48,3.81-3.92,2.92-1.48,4.08,5.19,1.24.15,4.68-6,10.29-2.34,16.15,8.43,13.69,11.44,14.32,9.58,1.35,12.34-9.57,3.22-10.91,7.68-11.34,4.55-4.28,6.79-5.87,8.68-5.82,12-6,5.6-4,8.82-.88,6.78-7.23,1.56-7.09-10.69-1.1-9.21-5.19,4.74-2.62,7.75-2.27,6.83,1.56,7.06-7.23,2.54-12.85-1.57-13.24-.48-5.4-.48-5.4S351,226.67,300.18,242.65Z" transform="translate(-187.52 -231.59)"/><path class="a5aa048f-c581-4670-b37d-4e950248f458" d="M301.56,248.11s.94,6.69,3.73,6.5,4-1.75,5-3.36c1.35-2.09.86-5.16,3.56-4.2s5.57,2.22,5.57,2.22,24.14-13.14,67.59-7.51a5,5,0,0,1,1.57-3S335.25,230.62,301.56,248.11Z" transform="translate(-187.52 -231.59)"/><path class="a9ba58cf-df14-4507-b402-0cda787c9a73" d="M297.66,546.67l1.9-7.87c.05-.21.05-.26.22-.13,1.71,1.28,8.86-.15,6.65-4.12,0,0-10.71-2.72-23.85-11.22l-1,16.93S290.93,544.45,297.66,546.67Z" transform="translate(-187.52 -231.59)"/><path class="a9ba58cf-df14-4507-b402-0cda787c9a73" d="M205.81,395s-1.29-43.84,32-98.65l-12-2.57s-33.42,34.4-35.83,96.55l6.81.74s1.89.64,1.65,8.89c0,0,.2,8.86,3.9,8.09,3.36-.7.6-6.13.52-9.17A4,4,0,0,1,205.81,395Z" transform="translate(-187.52 -231.59)"/><path class="a9ba58cf-df14-4507-b402-0cda787c9a73" d="M300.73,242.94l.83,5.17s29.72-16.67,87-9.32C388.57,238.79,344.16,227.26,300.73,242.94Z" transform="translate(-187.52 -231.59)"/><circle class="ed62a908-c9b1-40d4-8be4-112002ddb0e1" cx="160.86" cy="25.02" r="9.65"/><path class="ed62a908-c9b1-40d4-8be4-112002ddb0e1" d="M465.31,327.45S461.49,285,416.69,266.6c0,0-29.95-18.06-36-4.67s23.59,22.2,44.12,28.13S465.31,327.45,465.31,327.45Z" transform="translate(-187.52 -231.59)"/></svg>