<svg id="f0e3429c-2243-4c2f-b565-1df8de957d98" data-name="Livello 4" xmlns="http://www.w3.org/2000/svg" viewBox="0 0 277 275.11"><title>logo</title><path d="M198.49,311.68a11.12,11.12,0,0,0,8,0c4-1.71,29.65-19.39,52.45-19.39s38.77-1.52,33.64,10.07-44.76,88.57-44.76,88.57-6.84-1.43-7.41,0-3.31,5.42,5.61,4.56l-1.33,3.71s-9.7-1.14-10.84,7.69,0,10.84,6,13.4,13.4-2,14.54-5.41,2.28-11.12-3.71-13.4l1.43-4s10.26,5.13,7.13,16.53-11.3,10-13.21,11.12-1.9,4,1.52,3.42,11.4-1.43,15.39-14-7.12-18.1-7.84-20.38S298.84,307,298.84,307s.29-3.13,3.71-2a28.82,28.82,0,0,1,5.85,2.7s1.72,2,0,5.42-.15,4,2.7,5.28,17.11,10.12,24.52,19.24,19.19,23.76,21.19,36.58,3,16.44,1.05,30.13-3.14,32.5-23.38,55.59c0,0-2.28,2.85,2.85,3.42s4.28,8.27,4.28,8.27-1.43,7.7,5.13,9.41,18.24,2.28,19.38,4.84S369,497.27,369,497.27s-35.35,19.67-80.39,12.54-56.45-21.95-56.45-21.95-3.42-2-5.7,1.14-1.42,5.7,3.14,8.27,35.63,23.37,69.84,22.8S367,513,396.06,489,449.94,423.71,446,372.4s-40.2-110.61-110.33-124.3-107.48,21.1-123.44,35.64S180.25,321.65,173.69,347s-3.7,54.73-3.7,54.73.57,3.71,5.13,3.42,4.84-4,4-8.83S175.12,341.32,198.49,311.68Z" transform="translate(-169.37 -244.97)"/><path d="M211.61,481.87s-23.66-19.38-36.21-57c0,0-1.14-7.12,4-6.84s4.56,3.42,6.28,8.84,14.53,33.64,30.5,47.32c0,0,4.56,4.56,2,7.7S211.61,481.87,211.61,481.87Z" transform="translate(-169.37 -244.97)"/><path d="M226.86,408.89s-2.28-2.42,0-6.27,3.28-4.56,4.56-4-1.14,6.27-1.14,6.27S229.43,410.31,226.86,408.89Z" transform="translate(-169.37 -244.97)"/><path d="M232.42,422.15s1.14-1.29,3,0,4.42,2.56,3.42,4-3.85,1-4.84,0S231.42,423.71,232.42,422.15Z" transform="translate(-169.37 -244.97)"/><path d="M227.29,411s2.28,0,2.71,3.56,0,4.28,0,4.28-3.6,1.14-4.15-3S227.29,411,227.29,411Z" transform="translate(-169.37 -244.97)"/><polygon points="93.27 208.53 93.27 216.8 108.81 221.64 108.81 213.95 93.27 208.53"/><polygon points="112.94 215.09 114.51 224.21 164.68 241.46 164.68 232.76 112.94 215.09"/><path d="M266.72,398.45c-2.15-4.26-1.07-6.4-1.07-6.4l36.8-70.68c87.37,50.93,25.63,136.84,25.63,136.84l-8.19.71-65.52-24.66C275.45,424.43,268.87,402.71,266.72,398.45ZM314,339.73a4.58,4.58,0,1,0-.21,6.48A4.58,4.58,0,0,0,314,339.73Zm24.77,61.66a36.93,36.93,0,0,0-3.54-36.82s-7.23-15-13.1-11.2,3.62,14.95,10.24,22.64S338.72,401.39,338.72,401.39Z" transform="translate(-169.37 -244.97)"/></svg>
